<mxfile host="65bd71144e">
    <diagram name="AI Job Agent Architecture" id="AIJobAgentArch1">
        <mxGraphModel dx="1213" dy="922" grid="1" gridSize="10" guides="1" tooltips="1" connect="1" arrows="1" fold="1" page="1" pageScale="1" pageWidth="827" pageHeight="1169" math="0" shadow="0">
            <root>
                <mxCell id="0"/>
                <mxCell id="1" parent="0"/>
                <mxCell id="2" value="User Interface (Frontend)" style="rounded=1;whiteSpace=wrap;html=1;fillColor=#dae8fc;strokeColor=#6c8ebf;" parent="1" vertex="1">
                    <mxGeometry x="60" y="120" width="180" height="60" as="geometry"/>
                </mxCell>
                <mxCell id="3" value="API Gateway (Controller Layer)" style="rounded=1;whiteSpace=wrap;html=1;fillColor=#e1d5e7;strokeColor=#9673a6;" parent="1" vertex="1">
                    <mxGeometry x="300" y="120" width="220" height="60" as="geometry"/>
                </mxCell>
                <mxCell id="4" value="Intent Detection (IntentDetectionService)" style="rounded=1;whiteSpace=wrap;html=1;fillColor=#fff2cc;strokeColor=#d6b656;" parent="1" vertex="1">
                    <mxGeometry x="580" y="60" width="240" height="60" as="geometry"/>
                </mxCell>
                <mxCell id="5" value="AI Services" style="swimlane;whiteSpace=wrap;html=1;fillColor=#d5e8d4;strokeColor=#82b366;" parent="1" vertex="1">
                    <mxGeometry x="670" y="290" width="180" height="260" as="geometry"/>
                </mxCell>
                <mxCell id="6" value="ResumeAdviceService" style="rounded=1;whiteSpace=wrap;html=1;fillColor=#ffffff;strokeColor=#82b366;" parent="5" vertex="1">
                    <mxGeometry x="20" y="40" width="140" height="40" as="geometry"/>
                </mxCell>
                <mxCell id="7" value="JobAnalyzeDetailService" style="rounded=1;whiteSpace=wrap;html=1;fillColor=#ffffff;strokeColor=#82b366;" parent="5" vertex="1">
                    <mxGeometry x="20" y="90" width="140" height="40" as="geometry"/>
                </mxCell>
                <mxCell id="8" value="GeneralService" style="rounded=1;whiteSpace=wrap;html=1;fillColor=#ffffff;strokeColor=#82b366;" parent="5" vertex="1">
                    <mxGeometry x="20" y="140" width="140" height="40" as="geometry"/>
                </mxCell>
                <mxCell id="9" value="InterviewServiceAI" style="rounded=1;whiteSpace=wrap;html=1;fillColor=#ffffff;strokeColor=#82b366;" parent="5" vertex="1">
                    <mxGeometry x="20" y="190" width="140" height="40" as="geometry"/>
                </mxCell>
                <mxCell id="10" value="Database (User, Job, Interview, etc.)" style="ellipse;whiteSpace=wrap;html=1;fillColor=#f8cecc;strokeColor=#b85450;" parent="1" vertex="1">
                    <mxGeometry x="1000" y="480" width="180" height="80" as="geometry"/>
                </mxCell>
                <mxCell id="11" value="External LLM Provider (Azure OpenAI)" style="rounded=1;whiteSpace=wrap;html=1;fillColor=#b7e1cd;strokeColor=#388e3c;" parent="1" vertex="1">
                    <mxGeometry x="870" y="150" width="220" height="60" as="geometry"/>
                </mxCell>
                <mxCell id="12" style="edgeStyle=orthogonalEdgeStyle;rounded=0;orthogonalLoop=1;jettySize=auto;html=1;endArrow=block;endFill=1;strokeColor=#6c8ebf;" parent="1" source="2" target="3" edge="1">
                    <mxGeometry relative="1" as="geometry"/>
                </mxCell>
                <mxCell id="13" style="edgeStyle=orthogonalEdgeStyle;rounded=0;orthogonalLoop=1;jettySize=auto;html=1;endArrow=block;endFill=1;strokeColor=#9673a6;" parent="1" source="3" target="4" edge="1">
                    <mxGeometry relative="1" as="geometry"/>
                </mxCell>
                <mxCell id="14" style="edgeStyle=orthogonalEdgeStyle;rounded=0;orthogonalLoop=1;jettySize=auto;html=1;endArrow=block;endFill=1;strokeColor=#d6b656;" parent="1" source="4" target="5" edge="1">
                    <mxGeometry relative="1" as="geometry"/>
                </mxCell>
                <mxCell id="15" style="edgeStyle=orthogonalEdgeStyle;rounded=0;orthogonalLoop=1;jettySize=auto;html=1;endArrow=block;endFill=1;strokeColor=#b85450;" parent="1" source="5" target="10" edge="1">
                    <mxGeometry relative="1" as="geometry"/>
                </mxCell>
                <mxCell id="16" style="edgeStyle=orthogonalEdgeStyle;rounded=0;orthogonalLoop=1;jettySize=auto;html=1;endArrow=block;endFill=1;strokeColor=#388e3c;" parent="1" source="5" target="11" edge="1">
                    <mxGeometry relative="1" as="geometry"/>
                </mxCell>
                <mxCell id="17" style="edgeStyle=orthogonalEdgeStyle;rounded=0;orthogonalLoop=1;jettySize=auto;html=1;endArrow=block;endFill=1;strokeColor=#6c8ebf;" parent="1" source="5" target="3" edge="1">
                    <mxGeometry relative="1" as="geometry"/>
                </mxCell>
                <mxCell id="18" style="edgeStyle=orthogonalEdgeStyle;rounded=0;orthogonalLoop=1;jettySize=auto;html=1;endArrow=block;endFill=1;strokeColor=#6c8ebf;dashed=1;" parent="1" source="3" target="2" edge="1">
                    <mxGeometry relative="1" as="geometry"/>
                </mxCell>
            </root>
        </mxGraphModel>
    </diagram>
</mxfile>